# xmcd CD database file
#
# Track frame offsets:
#	150
#	12773
#	30520
#	44083
#	56293
#	70693
#	80600
#	95893
#	107223
#	125675
#	137830
#	152488
#	161478
#	172305
#
# Disc length: 2472 seconds
#
# Revision: 0
# Processed by: cddbd v1.5.1PL0 Copyright (c) Steve Scherf et al.
# Submitted via: CDex 1.50beta9
#
DISCID=be09a60e
DTITLE=Declan Nerney - In The Beginnoing
DYEAR=1900
DGENRE=Country
TTITLE0=Picture Of my World
TTITLE1=Good Bye Johnny Dear
TTITLE2=Really Like To See You One More Time
TTITLE3=Each Season Changes You
TTITLE4=Now I'm Sixty - Four
TTITLE5=Same Sweet Girl
TTITLE6=World Turned Into Ashes
TTITLE7=Old Man Trouble
TTITLE8=Green Hills Are Rollin Still
TTITLE9=Swetest Thing
TTITLE10=Star Of Donegal
TTITLE11=A Little Bit Of Tear
TTITLE12=Kelly's Mountain Dew
TTITLE13=My Native Town Drumlish
EXTD=
EXTT0=
EXTT1=
EXTT2=
EXTT3=
EXTT4=
EXTT5=
EXTT6=
EXTT7=
EXTT8=
EXTT9=
EXTT10=
EXTT11=
EXTT12=
EXTT13=
PLAYORDER=
